<?xml version="1.0" encoding="UTF-8"?>
<svg xmlns="http://www.w3.org/2000/svg" viewBox="0 0 64 64" width="64" height="64">
  <path data-layer="monochrome-0" fill="#000000" d="M53.4511 31.8897 C53.4511 20.1141 43.9414 10.6044 32.1658 10.6044 C25.2204 10.6044 18.9792 13.8974 15.122 19.0914 L15.122 13.8881 C15.122 12.3251 13.8459 11.049 12.2829 11.049 C10.7199 11.049 9.4438 12.3251 9.4438 13.8881 L9.4438 26.2061 C9.4438 27.7691 10.7199 29.0452 12.2829 29.0452 L24.6009 29.0452 C26.1639 29.0452 27.44 27.7691 27.44 26.2061 C27.44 24.6431 26.1639 23.367 24.6009 23.367 L18.6758 23.367 C21.5546 18.9959 26.508 16.2826 32.1658 16.2826 C40.8092 16.2826 47.7728 23.2462 47.7728 31.8897 C47.7728 40.5331 40.8092 47.4967 32.1658 47.4967 C25.9057 47.4967 20.2216 43.8259 17.6924 38.1296 C17.062 36.7085 15.385 36.0606 13.9639 36.691 C12.5428 37.3214 11.8949 38.9984 12.5253 40.4195 C15.9629 48.1584 23.6793 53.1749 32.1658 53.1749 C43.9414 53.1749 53.4511 43.6652 53.4511 31.8897 Z"/>
</svg>
