<?xml version="1.0" encoding="UTF-8"?>
<svg xmlns="http://www.w3.org/2000/svg" viewBox="0 0 64 64" width="64" height="64">
  <defs>
    <mask id="sfsym-m0" maskUnits="userSpaceOnUse" x="0" y="0" width="64" height="64">
      <rect x="0" y="0" width="64" height="64" fill="white"/>
      <path fill="black" d="M28.9473 44.9737 C28.0526 44.9737 27.3158 44.6053 26.6316 43.6842 L20.0263 35.579 C19.6316 35.0526 19.3947 34.4737 19.3947 33.8684 C19.3947 32.6842 20.3158 31.7105 21.5 31.7105 C22.2631 31.7105 22.8421 31.9474 23.5 32.8158 L28.8421 39.7105 L40.0789 21.6579 C40.5789 20.8685 41.2631 20.4474 41.9473 20.4474 C43.1052 20.4474 44.1842 21.2369 44.1842 22.4737 C44.1842 23.0527 43.8421 23.6579 43.5263 24.2106 L31.1579 43.6842 C30.6052 44.5526 29.8421 44.9737 28.9473 44.9737 Z"/>
    </mask>
  </defs>
  <path data-layer="monochrome-0" fill="#000000" mask="url(#sfsym-m0)" d="M31.8947 58.9474 C46.7105 58.9474 58.7368 46.8948 58.7368 32.1053 C58.7368 17.2895 46.7105 5.2632 31.8947 5.2632 C17.1053 5.2632 5.0526 17.2895 5.0526 32.1053 C5.0526 46.8948 17.1053 58.9474 31.8947 58.9474 Z"/>
</svg>
