<?xml version="1.0" encoding="UTF-8"?>
<svg xmlns="http://www.w3.org/2000/svg" viewBox="0 0 64 64" width="64" height="64">
  <path data-layer="monochrome-0" fill="#000000" d="M31.6901 45.9719 C32.3943 45.9719 33.0986 45.6902 33.5774 45.1549 L55.3802 22.8169 C55.8591 22.3381 56.1408 21.7184 56.1408 21.0141 C56.1408 19.5493 55.0422 18.4226 53.5774 18.4226 C52.8732 18.4226 52.2253 18.7043 51.7464 19.155 L30.169 41.2113 L33.1831 41.2113 L11.6056 19.155 C11.1549 18.7043 10.507 18.4226 9.7746 18.4226 C8.3099 18.4226 7.2113 19.5493 7.2113 21.0141 C7.2113 21.7184 7.493 22.3381 7.9718 22.8451 L29.7746 45.1549 C30.3098 45.6902 30.9577 45.9719 31.6901 45.9719 Z"/>
</svg>
